<?xml version="1.0" encoding="UTF-8"?>
<!DOCTYPE svg PUBLIC "-//W3C//DTD SVG 1.1//EN" "http://www.w3.org/Graphics/SVG/1.1/DTD/svg11.dtd">
<svg xmlns="http://www.w3.org/2000/svg" version="1.1" width="1836px" height="1948px" style="shape-rendering:geometricPrecision; text-rendering:geometricPrecision; image-rendering:optimizeQuality; fill-rule:evenodd; clip-rule:evenodd" xmlns:xlink="http://www.w3.org/1999/xlink">
<g><path style="opacity:1" fill="#ed9228" d="M -0.5,-0.5 C 611.5,-0.5 1223.5,-0.5 1835.5,-0.5C 1835.5,648.833 1835.5,1298.17 1835.5,1947.5C 1223.5,1947.5 611.5,1947.5 -0.5,1947.5C -0.5,1298.17 -0.5,648.833 -0.5,-0.5 Z"/></g>
<g><path style="opacity:1" fill="#f8b333" d="M 1244.5,1107.5 C 1243.83,1107.5 1243.17,1107.5 1242.5,1107.5C 1233.83,1107.83 1225.17,1108.17 1216.5,1108.5C 1198.95,1106.99 1181.62,1104.32 1164.5,1100.5C 1162.29,1078.5 1164.13,1056.83 1170,1035.5C 1183.08,986.245 1199.75,938.245 1220,891.5C 1225,877.178 1230,862.844 1235,848.5C 1251.43,792.857 1267.93,737.19 1284.5,681.5C 1284.33,680.833 1284.17,680.167 1284,679.5C 1276.13,689.009 1266.3,695.342 1254.5,698.5C 1250.27,707.725 1243.94,715.059 1235.5,720.5C 1233.42,714.018 1231.09,707.684 1228.5,701.5C 1237.73,690.906 1241.23,678.573 1239,664.5C 1237.89,660.802 1236.22,657.468 1234,654.5C 1220.74,660.988 1206.9,662.321 1192.5,658.5C 1159.35,664.795 1133.35,654.128 1114.5,626.5C 1114.67,626.167 1114.83,625.833 1115,625.5C 1139.18,632.387 1157.52,625.054 1170,603.5C 1180.18,581.584 1181.18,559.251 1173,536.5C 1169.59,553.753 1163.25,569.753 1154,584.5C 1151.83,586.667 1149.67,588.833 1147.5,591C 1131.94,602.279 1114.61,608.779 1095.5,610.5C 1079.94,609.116 1065.94,603.782 1053.5,594.5C 1066.42,591.468 1076.92,584.801 1085,574.5C 1086.91,571.785 1088.24,568.785 1089,565.5C 1091.44,546.548 1090.11,527.882 1085,509.5C 1083.36,504.892 1081.2,500.559 1078.5,496.5C 1078.93,552.237 1051.26,579.737 995.5,579C 980.472,577.287 968.472,570.453 959.5,558.5C 958.307,555.948 956.973,553.448 955.5,551C 957.81,550.503 960.143,550.337 962.5,550.5C 986.149,551.021 1001.65,540.021 1009,517.5C 1010.94,506.157 1010.94,494.823 1009,483.5C 1008.23,478.076 1006.4,473.076 1003.5,468.5C 992.616,452.385 977.283,444.051 957.5,443.5C 934.359,443.989 918.693,454.989 910.5,476.5C 903.648,470.147 896.648,463.981 889.5,458C 866.976,444.505 847.476,448.005 831,468.5C 829.277,470.717 827.777,473.05 826.5,475.5C 816.257,489.207 813.091,504.541 817,521.5C 822.417,533.63 831.251,542.296 843.5,547.5C 846.588,548.243 847.255,549.91 845.5,552.5C 836.644,560.013 826.978,566.346 816.5,571.5C 795.495,570.603 775.829,565.103 757.5,555C 747.389,546.945 741.889,536.445 741,523.5C 739.567,503.645 740.734,483.978 744.5,464.5C 744,464.167 743.5,463.833 743,463.5C 715.79,477.767 702.124,500.434 702,531.5C 701.108,544.238 701.608,556.905 703.5,569.5C 694.904,569.785 688.071,566.452 683,559.5C 676.72,549.831 673.054,539.164 672,527.5C 670.972,517.859 670.472,508.192 670.5,498.5C 655.795,502.032 644.628,510.365 637,523.5C 630.325,540.547 626.325,558.214 625,576.5C 618.628,567.75 613.961,558.084 611,547.5C 610.444,540.114 610.444,532.781 611,525.5C 602.308,531.192 597.308,539.192 596,549.5C 587.751,539.998 580.751,529.664 575,518.5C 572.795,513.555 571.628,508.389 571.5,503C 572.727,491.002 574.56,479.168 577,467.5C 564.818,484.25 548.651,493.917 528.5,496.5C 536.723,487.783 543.557,478.116 549,467.5C 552.584,456.254 555.917,444.921 559,433.5C 563.141,421.709 569.975,411.876 579.5,404C 580.5,403.667 581.5,403.333 582.5,403C 564.162,400.667 546.495,403 529.5,410C 527.61,411.873 525.61,412.706 523.5,412.5C 535.826,381.019 558.826,363.185 592.5,359C 602.86,358.267 613.194,358.433 623.5,359.5C 623.039,333.884 627.539,309.217 637,285.5C 640.871,277.586 645.371,270.086 650.5,263C 649.423,262.53 648.423,262.697 647.5,263.5C 642.428,248.688 635.261,235.021 626,222.5C 598.184,193.803 565.684,186.969 528.5,202C 514.104,207.9 503.437,217.734 496.5,231.5C 486.416,245.041 481.416,260.374 481.5,277.5C 481.675,285.568 482.508,293.568 484,301.5C 486.546,308.975 489.379,316.308 492.5,323.5C 478.872,307.913 469.706,289.913 465,269.5C 461.834,258.334 459.5,247.001 458,235.5C 455.869,218.692 458.536,202.692 466,187.5C 470.171,177.811 475.338,168.811 481.5,160.5C 482.947,159.378 483.947,157.878 484.5,156C 519.403,135.957 556.403,130.957 595.5,141C 606.75,145.292 617.417,150.625 627.5,157C 630.055,160.572 633.388,162.905 637.5,164C 643.286,169.576 649.12,175.076 655,180.5C 667.182,196.889 675.016,215.223 678.5,235.5C 729.856,207.748 784.856,195.248 843.5,198C 858.379,199.888 873.046,202.721 887.5,206.5C 930.602,193.93 974.602,189.097 1019.5,192C 1046.93,195.853 1072.93,204.02 1097.5,216.5C 1115.51,168.325 1149.85,139.491 1200.5,130C 1249.55,125.544 1289.22,142.378 1319.5,180.5C 1344.91,218.129 1350.08,258.462 1335,301.5C 1323.81,328.863 1305.31,349.863 1279.5,364.5C 1288.48,371.154 1296.82,378.488 1304.5,386.5C 1312.98,399.061 1320.81,412.061 1328,425.5C 1338.54,439.917 1345.87,455.917 1350,473.5C 1354.11,493.423 1350.61,511.756 1339.5,528.5C 1344.76,546.873 1344.76,565.206 1339.5,583.5C 1346.06,625.715 1330.39,656.382 1292.5,675.5C 1291.72,676.729 1291.22,678.062 1291,679.5C 1287.83,758.236 1283.5,836.902 1278,915.5C 1272.69,958.984 1266.36,1002.32 1259,1045.5C 1254.33,1066.22 1249.49,1086.89 1244.5,1107.5 Z"/></g>
<g><path style="opacity:1" fill="#fdfcfa" d="M 1218.5,328.5 C 1256.23,324.937 1279.06,304.604 1287,267.5C 1289.81,227.925 1272.64,201.425 1235.5,188C 1196.74,180.134 1168.24,193.634 1150,228.5C 1148.03,233.391 1146.53,238.391 1145.5,243.5C 1141.6,241.739 1138.93,238.906 1137.5,235C 1148.25,200.923 1171.25,180.59 1206.5,174C 1246.15,170.859 1275.32,186.693 1294,221.5C 1308.4,258.84 1301.57,291.673 1273.5,320C 1259.56,331.094 1243.73,337.928 1226,340.5C 1225.23,340.355 1224.56,340.022 1224,339.5C 1222.14,335.78 1220.31,332.114 1218.5,328.5 Z"/></g>
<g><path style="opacity:1" fill="#cf6d2e" d="M 481.5,160.5 C 475.338,168.811 470.171,177.811 466,187.5C 458.536,202.692 455.869,218.692 458,235.5C 459.5,247.001 461.834,258.334 465,269.5C 469.706,289.913 478.872,307.913 492.5,323.5C 497.942,331.111 503.942,338.278 510.5,345C 519.902,352.868 530.569,358.368 542.5,361.5C 559.192,356.027 576.192,351.694 593.5,348.5C 594.801,345.573 595.801,342.573 596.5,339.5C 605.486,316.527 617.819,295.527 633.5,276.5C 638.193,272.139 642.859,267.805 647.5,263.5C 648.423,262.697 649.423,262.53 650.5,263C 645.371,270.086 640.871,277.586 637,285.5C 627.539,309.217 623.039,333.884 623.5,359.5C 613.194,358.433 602.86,358.267 592.5,359C 558.826,363.185 535.826,381.019 523.5,412.5C 525.61,412.706 527.61,411.873 529.5,410C 546.495,403 564.162,400.667 582.5,403C 581.5,403.333 580.5,403.667 579.5,404C 569.975,411.876 563.141,421.709 559,433.5C 555.917,444.921 552.584,456.254 549,467.5C 543.557,478.116 536.723,487.783 528.5,496.5C 548.651,493.917 564.818,484.25 577,467.5C 574.56,479.168 572.727,491.002 571.5,503C 571.628,508.389 572.795,513.555 575,518.5C 580.751,529.664 587.751,539.998 596,549.5C 597.308,539.192 602.308,531.192 611,525.5C 610.444,532.781 610.444,540.114 611,547.5C 613.961,558.084 618.628,567.75 625,576.5C 626.325,558.214 630.325,540.547 637,523.5C 644.628,510.365 655.795,502.032 670.5,498.5C 670.472,508.192 670.972,517.859 672,527.5C 673.054,539.164 676.72,549.831 683,559.5C 688.071,566.452 694.904,569.785 703.5,569.5C 701.608,556.905 701.108,544.238 702,531.5C 702.124,500.434 715.79,477.767 743,463.5C 743.5,463.833 744,464.167 744.5,464.5C 740.734,483.978 739.567,503.645 741,523.5C 741.889,536.445 747.389,546.945 757.5,555C 775.829,565.103 795.495,570.603 816.5,571.5C 813.454,574.357 809.787,576.19 805.5,577C 791.722,578.769 778.388,577.102 765.5,572C 749.043,566.869 736.876,556.702 729,541.5C 725.279,529.143 723.612,516.476 724,503.5C 719.011,517.777 716.344,532.444 716,547.5C 718.271,555.206 722.437,561.706 728.5,567C 735.676,571.755 743.009,576.255 750.5,580.5C 737.572,589.257 723.238,592.757 707.5,591C 699.638,589.121 691.971,586.787 684.5,584C 681.5,582.167 678.5,580.333 675.5,578.5C 665.802,565.235 660.969,550.235 661,533.5C 659.333,544.503 657.666,555.503 656,566.5C 654.12,580.358 657.953,592.358 667.5,602.5C 673.951,608.886 680.951,614.553 688.5,619.5C 676.081,626.55 662.748,629.05 648.5,627C 643.788,625.87 639.288,624.37 635,622.5C 634.023,627.734 634.69,632.734 637,637.5C 641.38,643.382 646.547,648.382 652.5,652.5C 645.506,659.012 637.172,662.678 627.5,663.5C 630.305,670.278 632.972,677.111 635.5,684C 635.167,684.5 634.833,685 634.5,685.5C 628.703,682.358 622.703,681.858 616.5,684C 618.5,686.333 620.5,688.667 622.5,691C 616.833,691.333 611.167,691.667 605.5,692C 596.219,706.4 592.219,722.233 593.5,739.5C 593.471,751.743 595.138,763.743 598.5,775.5C 596.916,785.837 595.249,796.17 593.5,806.5C 589.534,825.425 582.034,842.758 571,858.5C 570.835,850.812 571.335,843.145 572.5,835.5C 572.333,834.167 572.167,832.833 572,831.5C 571.667,832.167 571.333,832.833 571,833.5C 559.209,875.21 547.209,916.876 535,958.5C 527.032,1001.68 521.532,1045.18 518.5,1089C 518.088,1100 522.088,1108.83 530.5,1115.5C 522.821,1115.4 515.154,1115.07 507.5,1114.5C 500.605,1105.36 496.438,1095.03 495,1083.5C 494,1075.5 493,1067.5 492,1059.5C 491.443,1040.8 490.443,1022.14 489,1003.5C 488.336,939.46 489.669,875.46 493,811.5C 497.501,750.838 501.501,690.171 505,629.5C 494.67,619.833 486.67,608.499 481,595.5C 480.193,586.454 480.526,577.454 482,568.5C 484.526,560.796 487.026,553.13 489.5,545.5C 474.153,546.845 458.819,546.512 443.5,544.5C 449.974,540.762 456.641,537.262 463.5,534C 480.597,523.893 491.097,509.059 495,489.5C 495.347,466.294 502.18,445.294 515.5,426.5C 514.277,425.386 512.944,425.219 511.5,426C 502.064,430.179 493.73,435.846 486.5,443C 485.4,443.432 484.733,442.932 484.5,441.5C 490.431,419.802 500.431,400.302 514.5,383C 498.728,373.608 483.061,363.942 467.5,354C 446.892,332.952 434.058,307.786 429,278.5C 426.843,244.989 434.51,213.989 452,185.5C 461.11,175.495 470.943,167.161 481.5,160.5 Z"/></g>
<g><path style="opacity:1" fill="#912223" d="M 1218.5,328.5 C 1211.43,317.365 1204.09,306.365 1196.5,295.5C 1202.25,288.622 1204.58,280.622 1203.5,271.5C 1203.7,254.727 1196.7,241.893 1182.5,233C 1167.18,226.001 1155.52,229.834 1147.5,244.5C 1146.83,244.167 1146.17,243.833 1145.5,243.5C 1146.53,238.391 1148.03,233.391 1150,228.5C 1168.24,193.634 1196.74,180.134 1235.5,188C 1272.64,201.425 1289.81,227.925 1287,267.5C 1279.06,304.604 1256.23,324.937 1218.5,328.5 Z"/></g>
<g><path style="opacity:1" fill="#fdfcfb" d="M 647.5,263.5 C 642.859,267.805 638.193,272.139 633.5,276.5C 629.729,244.561 612.396,224.061 581.5,215C 542.644,209.335 515.811,224.502 501,260.5C 499.624,265.755 498.791,271.088 498.5,276.5C 491.341,261.906 490.675,246.906 496.5,231.5C 503.437,217.734 514.104,207.9 528.5,202C 565.684,186.969 598.184,193.803 626,222.5C 635.261,235.021 642.428,248.688 647.5,263.5 Z"/></g>
<g><path style="opacity:1" fill="#fcfbfa" d="M 1225.5,199.5 C 1242.67,198.668 1256.5,205.001 1267,218.5C 1274.26,231.289 1272.76,242.789 1262.5,253C 1261.12,254.241 1259.79,254.408 1258.5,253.5C 1254.61,245.547 1249.61,238.38 1243.5,232C 1234.04,223.869 1224.04,216.535 1213.5,210C 1216.12,204.867 1220.12,201.367 1225.5,199.5 Z"/></g>
<g><path style="opacity:1" fill="#a02522" d="M 633.5,276.5 C 617.819,295.527 605.486,316.527 596.5,339.5C 574.505,349.412 552.838,348.746 531.5,337.5C 531.369,336.761 531.536,336.094 532,335.5C 549.29,338.858 560.624,332.191 566,315.5C 567.764,296.775 559.93,283.941 542.5,277C 537.833,276.333 533.167,276.333 528.5,277C 523.792,278.687 519.459,280.854 515.5,283.5C 513.452,286.916 511.786,290.583 510.5,294.5C 509.336,300.807 509.169,307.141 510,313.5C 511.812,315.304 511.646,316.304 509.5,316.5C 501.38,304.516 497.713,291.183 498.5,276.5C 498.791,271.088 499.624,265.755 501,260.5C 515.811,224.502 542.644,209.335 581.5,215C 612.396,224.061 629.729,244.561 633.5,276.5 Z"/></g>
<g><path style="opacity:1" fill="#fcfafa" d="M 573.5,224.5 C 589.056,223.945 601.223,229.945 610,242.5C 613.46,249.628 614.126,256.961 612,264.5C 608.553,270.381 603.387,272.714 596.5,271.5C 594.566,264.83 590.566,259.663 584.5,256C 576.248,250.207 567.248,246.041 557.5,243.5C 559.211,234.122 564.544,227.789 573.5,224.5 Z"/></g>
<g><path style="opacity:1" fill="#581b1f" d="M 1196.5,295.5 C 1182.5,276.164 1166.16,259.164 1147.5,244.5C 1155.52,229.834 1167.18,226.001 1182.5,233C 1196.7,241.893 1203.7,254.727 1203.5,271.5C 1204.58,280.622 1202.25,288.622 1196.5,295.5 Z"/></g>
<g><path style="opacity:1" fill="#7c201f" d="M 531.5,337.5 C 522.217,332.55 514.884,325.55 509.5,316.5C 511.646,316.304 511.812,315.304 510,313.5C 509.169,307.141 509.336,300.807 510.5,294.5C 511.786,290.583 513.452,286.916 515.5,283.5C 519.459,280.854 523.792,278.687 528.5,277C 533.167,276.333 537.833,276.333 542.5,277C 559.93,283.941 567.764,296.775 566,315.5C 560.624,332.191 549.29,338.858 532,335.5C 531.536,336.094 531.369,336.761 531.5,337.5 Z"/></g>
<g><path style="opacity:1" fill="#cf6d2d" d="M 907.5,301.5 C 910.187,301.336 912.854,301.503 915.5,302C 916.308,302.308 916.975,302.808 917.5,303.5C 914.119,305.88 911.453,308.88 909.5,312.5C 910.276,314.356 911.609,315.689 913.5,316.5C 909.143,319.357 905.643,323.023 903,327.5C 902.196,331.204 902.696,334.704 904.5,338C 909.807,338.013 914.141,335.847 917.5,331.5C 919.297,337.908 917.63,343.242 912.5,347.5C 912.287,354.409 910.62,360.909 907.5,367C 914.337,364.837 921.337,362.837 928.5,361C 933.5,360.333 938.5,360.333 943.5,361C 944.308,361.308 944.975,361.808 945.5,362.5C 931.658,376.181 922.491,392.515 918,411.5C 912.407,417.983 907.074,417.983 902,411.5C 901.06,389.124 892.227,370.624 875.5,356C 869.795,351.821 864.129,347.655 858.5,343.5C 859.714,341.931 861.381,341.098 863.5,341C 869.293,340.465 874.959,341.131 880.5,343C 883.286,345.06 886.286,346.56 889.5,347.5C 892.239,338.207 889.572,331.041 881.5,326C 883.661,323.523 884.495,320.689 884,317.5C 882.644,316.62 881.144,316.286 879.5,316.5C 879.178,314.278 879.845,312.444 881.5,311C 884.711,309.847 888.044,309.18 891.5,309C 896.282,305.107 901.615,302.607 907.5,301.5 Z"/></g>
<g><path style="opacity:1" fill="#bbb9c8" d="M 496.5,231.5 C 490.675,246.906 491.341,261.906 498.5,276.5C 497.713,291.183 501.38,304.516 509.5,316.5C 514.884,325.55 522.217,332.55 531.5,337.5C 552.838,348.746 574.505,349.412 596.5,339.5C 595.801,342.573 594.801,345.573 593.5,348.5C 576.192,351.694 559.192,356.027 542.5,361.5C 530.569,358.368 519.902,352.868 510.5,345C 503.942,338.278 497.942,331.111 492.5,323.5C 489.379,316.308 486.546,308.975 484,301.5C 482.508,293.568 481.675,285.568 481.5,277.5C 481.416,260.374 486.416,245.041 496.5,231.5 Z"/></g>
<g><path style="opacity:1" fill="#fefdfc" d="M 1083.5,389.5 C 1093.94,388.517 1103.27,391.183 1111.5,397.5C 1120.18,391.564 1128.01,392.564 1135,400.5C 1139.51,399.165 1144.01,399.331 1148.5,401C 1153.18,403.336 1157.51,406.169 1161.5,409.5C 1178.95,394.068 1195.45,395.068 1211,412.5C 1212.38,414.754 1213.88,416.92 1215.5,419C 1211.86,417.686 1208.19,416.019 1204.5,414C 1194.4,411.237 1184.74,412.237 1175.5,417C 1182.79,417.538 1189.13,420.205 1194.5,425C 1199.68,430.352 1204.34,436.185 1208.5,442.5C 1225.28,442.117 1235.45,450.117 1239,466.5C 1241.58,479.421 1242.08,492.421 1240.5,505.5C 1242.32,511.384 1242.82,517.384 1242,523.5C 1238.41,529.925 1232.91,532.759 1225.5,532C 1226.81,525.889 1226.81,519.722 1225.5,513.5C 1223.89,516.778 1221.56,519.444 1218.5,521.5C 1218.18,509.589 1216.35,497.923 1213,486.5C 1212.82,494.863 1209.49,501.529 1203,506.5C 1202.56,499.416 1201.56,492.416 1200,485.5C 1198.78,481.385 1196.78,477.718 1194,474.5C 1192.39,466.392 1187.56,461.392 1179.5,459.5C 1179.67,453.5 1177.84,448.167 1174,443.5C 1168.91,435.797 1162.41,429.631 1154.5,425C 1152.83,424.333 1151.17,424.333 1149.5,425C 1146.77,427.626 1144.94,430.793 1144,434.5C 1141.76,430.252 1138.76,426.586 1135,423.5C 1134.67,428.5 1134.33,433.5 1134,438.5C 1130.12,431.777 1125.28,425.777 1119.5,420.5C 1118.42,425.091 1116.75,429.424 1114.5,433.5C 1112.75,429.005 1110.25,425.005 1107,421.5C 1105.54,426.297 1103.2,430.631 1100,434.5C 1099.26,429.022 1096.93,424.355 1093,420.5C 1092.67,423.5 1092.33,426.5 1092,429.5C 1091.71,431.044 1091.04,432.377 1090,433.5C 1085.34,424.837 1079.18,417.337 1071.5,411C 1065.67,406.66 1060,402.16 1054.5,397.5C 1061.16,396.692 1067.82,396.525 1074.5,397C 1077.11,393.882 1080.11,391.382 1083.5,389.5 Z"/></g>
<g><path style="opacity:1" fill="#cf6d2e" d="M 1003.5,468.5 C 988.929,469.377 974.596,471.044 960.5,473.5C 943.263,475.351 926.429,479.018 910,484.5C 896.209,474.292 880.709,468.958 863.5,468.5C 860.116,468.586 856.783,468.919 853.5,469.5C 844.205,470.325 835.205,472.325 826.5,475.5C 827.777,473.05 829.277,470.717 831,468.5C 847.476,448.005 866.976,444.505 889.5,458C 896.648,463.981 903.648,470.147 910.5,476.5C 918.693,454.989 934.359,443.989 957.5,443.5C 977.283,444.051 992.616,452.385 1003.5,468.5 Z"/></g>
<g><path style="opacity:1" fill="#fccfa6" d="M 960.5,473.5 C 962.288,473.215 963.955,473.548 965.5,474.5C 974.579,489.672 977.079,506.006 973,523.5C 968.957,532.259 965.457,541.259 962.5,550.5C 960.143,550.337 957.81,550.503 955.5,551C 956.973,553.448 958.307,555.948 959.5,558.5C 952.085,576.084 947.751,594.418 946.5,613.5C 946.221,626.151 950.888,636.651 960.5,645C 962.972,646.46 965.639,647.46 968.5,648C 977.011,648.605 985.511,648.438 994,647.5C 1002.44,648.089 1010.6,649.922 1018.5,653C 1043.18,665.503 1068.84,675.503 1095.5,683C 1121.61,689.284 1147.61,688.951 1173.5,682C 1183.67,679.005 1192.5,673.838 1200,666.5C 1198.83,671.839 1197.33,677.172 1195.5,682.5C 1204.35,682.196 1212.02,685.029 1218.5,691C 1221.34,695.001 1224.67,698.501 1228.5,701.5C 1231.09,707.684 1233.42,714.018 1235.5,720.5C 1237.63,743.978 1232.8,765.978 1221,786.5C 1209.02,807.309 1192.86,823.976 1172.5,836.5C 1164.11,839.517 1155.44,841.517 1146.5,842.5C 1142.85,853.436 1139.35,864.436 1136,875.5C 1130.83,887.176 1124.17,897.843 1116,907.5C 1105.5,918.667 1094.67,929.5 1083.5,940C 1065.67,954.5 1047.83,969 1030,983.5C 1026.51,1004.68 1025.01,1026.01 1025.5,1047.5C 1007.15,1058.62 987.484,1066.62 966.5,1071.5C 962.98,1067.72 958.98,1064.39 954.5,1061.5C 954.167,1062 953.833,1062.5 953.5,1063C 955.049,1066.68 955.716,1070.51 955.5,1074.5C 935.905,1077.3 916.238,1077.97 896.5,1076.5C 896.646,1072.48 896.979,1068.48 897.5,1064.5C 922.252,1068.59 944.252,1062.76 963.5,1047C 978.579,1033.59 992.245,1018.92 1004.5,1003C 989.136,1011.18 973.469,1019.18 957.5,1027C 942.634,1032.9 927.301,1037.07 911.5,1039.5C 878.602,1029.88 847.602,1016.21 818.5,998.5C 817.167,997.5 815.833,996.5 814.5,995.5C 791.091,963.021 768.924,929.688 748,895.5C 743.651,886.802 739.318,878.136 735,869.5C 731.816,859.47 731.816,849.47 735,839.5C 739.23,827.279 745.896,816.612 755,807.5C 755.483,806.552 755.649,805.552 755.5,804.5C 742.095,802.368 731.928,795.368 725,783.5C 713.058,761.644 707.224,738.144 707.5,713C 706.261,697.342 711.928,685.008 724.5,676C 759.17,653.809 796.17,648.809 835.5,661C 852.313,676.212 870.313,677.545 889.5,665C 894.773,661.527 899.439,657.361 903.5,652.5C 876.974,623.463 857.641,590.13 845.5,552.5C 847.255,549.91 846.588,548.243 843.5,547.5C 836.677,527.741 835.843,507.741 841,487.5C 844.218,480.792 848.384,474.792 853.5,469.5C 856.783,468.919 860.116,468.586 863.5,468.5C 880.709,468.958 896.209,474.292 910,484.5C 926.429,479.018 943.263,475.351 960.5,473.5 Z"/></g>
<g><path style="opacity:1" fill="#e68c58" d="M 1003.5,468.5 C 1006.4,473.076 1008.23,478.076 1009,483.5C 1010.94,494.823 1010.94,506.157 1009,517.5C 1001.65,540.021 986.149,551.021 962.5,550.5C 965.457,541.259 968.957,532.259 973,523.5C 977.079,506.006 974.579,489.672 965.5,474.5C 963.955,473.548 962.288,473.215 960.5,473.5C 974.596,471.044 988.929,469.377 1003.5,468.5 Z"/></g>
<g><path style="opacity:1" fill="#e68c58" d="M 853.5,469.5 C 848.384,474.792 844.218,480.792 841,487.5C 835.843,507.741 836.677,527.741 843.5,547.5C 831.251,542.296 822.417,533.63 817,521.5C 813.091,504.541 816.257,489.207 826.5,475.5C 835.205,472.325 844.205,470.325 853.5,469.5 Z"/></g>
<g><path style="opacity:1" fill="#e68c58" d="M 816.5,571.5 C 826.978,566.346 836.644,560.013 845.5,552.5C 857.641,590.13 876.974,623.463 903.5,652.5C 899.439,657.361 894.773,661.527 889.5,665C 870.313,677.545 852.313,676.212 835.5,661C 796.17,648.809 759.17,653.809 724.5,676C 711.928,685.008 706.261,697.342 707.5,713C 707.224,738.144 713.058,761.644 725,783.5C 731.928,795.368 742.095,802.368 755.5,804.5C 755.649,805.552 755.483,806.552 755,807.5C 745.896,816.612 739.23,827.279 735,839.5C 731.816,849.47 731.816,859.47 735,869.5C 739.318,878.136 743.651,886.802 748,895.5C 768.924,929.688 791.091,963.021 814.5,995.5C 789.328,979.734 765.328,962.234 742.5,943C 730.269,931.438 718.769,919.271 708,906.5C 702.04,894.903 695.873,883.569 689.5,872.5C 689.5,870.5 689.5,868.5 689.5,866.5C 688.199,865.36 687.032,864.027 686,862.5C 684.539,857.24 683.373,851.907 682.5,846.5C 679.5,846.5 676.5,846.5 673.5,846.5C 670.102,841.649 666.435,841.316 662.5,845.5C 656.307,841.384 649.973,837.218 643.5,833C 630.336,821.498 618.502,808.665 608,794.5C 604.724,788.142 601.558,781.808 598.5,775.5C 595.138,763.743 593.471,751.743 593.5,739.5C 592.219,722.233 596.219,706.4 605.5,692C 611.167,691.667 616.833,691.333 622.5,691C 620.5,688.667 618.5,686.333 616.5,684C 622.703,681.858 628.703,682.358 634.5,685.5C 634.833,685 635.167,684.5 635.5,684C 632.972,677.111 630.305,670.278 627.5,663.5C 637.172,662.678 645.506,659.012 652.5,652.5C 646.547,648.382 641.38,643.382 637,637.5C 634.69,632.734 634.023,627.734 635,622.5C 639.288,624.37 643.788,625.87 648.5,627C 662.748,629.05 676.081,626.55 688.5,619.5C 680.951,614.553 673.951,608.886 667.5,602.5C 657.953,592.358 654.12,580.358 656,566.5C 657.666,555.503 659.333,544.503 661,533.5C 660.969,550.235 665.802,565.235 675.5,578.5C 678.5,580.333 681.5,582.167 684.5,584C 691.971,586.787 699.638,589.121 707.5,591C 723.238,592.757 737.572,589.257 750.5,580.5C 743.009,576.255 735.676,571.755 728.5,567C 722.437,561.706 718.271,555.206 716,547.5C 716.344,532.444 719.011,517.777 724,503.5C 723.612,516.476 725.279,529.143 729,541.5C 736.876,556.702 749.043,566.869 765.5,572C 778.388,577.102 791.722,578.769 805.5,577C 809.787,576.19 813.454,574.357 816.5,571.5 Z"/></g>
<g><path style="opacity:1" fill="#e68c58" d="M 1228.5,701.5 C 1224.67,698.501 1221.34,695.001 1218.5,691C 1212.02,685.029 1204.35,682.196 1195.5,682.5C 1197.33,677.172 1198.83,671.839 1200,666.5C 1192.5,673.838 1183.67,679.005 1173.5,682C 1147.61,688.951 1121.61,689.284 1095.5,683C 1068.84,675.503 1043.18,665.503 1018.5,653C 1010.6,649.922 1002.44,648.089 994,647.5C 985.511,648.438 977.011,648.605 968.5,648C 965.639,647.46 962.972,646.46 960.5,645C 950.888,636.651 946.221,626.151 946.5,613.5C 947.751,594.418 952.085,576.084 959.5,558.5C 968.472,570.453 980.472,577.287 995.5,579C 1051.26,579.737 1078.93,552.237 1078.5,496.5C 1081.2,500.559 1083.36,504.892 1085,509.5C 1090.11,527.882 1091.44,546.548 1089,565.5C 1088.24,568.785 1086.91,571.785 1085,574.5C 1076.92,584.801 1066.42,591.468 1053.5,594.5C 1065.94,603.782 1079.94,609.116 1095.5,610.5C 1114.61,608.779 1131.94,602.279 1147.5,591C 1149.67,588.833 1151.83,586.667 1154,584.5C 1163.25,569.753 1169.59,553.753 1173,536.5C 1181.18,559.251 1180.18,581.584 1170,603.5C 1157.52,625.054 1139.18,632.387 1115,625.5C 1114.83,625.833 1114.67,626.167 1114.5,626.5C 1133.35,654.128 1159.35,664.795 1192.5,658.5C 1206.9,662.321 1220.74,660.988 1234,654.5C 1236.22,657.468 1237.89,660.802 1239,664.5C 1241.23,678.573 1237.73,690.906 1228.5,701.5 Z"/></g>
<g><path style="opacity:1" fill="#cf6d2e" d="M 1164.5,1100.5 C 1150.74,1097.81 1137.07,1094.64 1123.5,1091C 1114.06,1088.36 1105.06,1084.86 1096.5,1080.5C 1110.08,1049.88 1122.91,1018.88 1135,987.5C 1141.2,967.693 1147.87,948.026 1155,928.5C 1158.36,916.864 1161.53,905.198 1164.5,893.5C 1178.43,895.413 1186.59,889.413 1189,875.5C 1189.67,870.167 1189.67,864.833 1189,859.5C 1186.07,864.267 1182.57,868.601 1178.5,872.5C 1176.51,874.327 1174.18,875.327 1171.5,875.5C 1170.45,875.649 1169.45,875.483 1168.5,875C 1169.41,873.301 1169.74,871.467 1169.5,869.5C 1171.68,866.737 1172.01,863.737 1170.5,860.5C 1171.12,852.493 1171.79,844.493 1172.5,836.5C 1192.86,823.976 1209.02,807.309 1221,786.5C 1232.8,765.978 1237.63,743.978 1235.5,720.5C 1243.94,715.059 1250.27,707.725 1254.5,698.5C 1266.3,695.342 1276.13,689.009 1284,679.5C 1284.17,680.167 1284.33,680.833 1284.5,681.5C 1267.93,737.19 1251.43,792.857 1235,848.5C 1230,862.844 1225,877.178 1220,891.5C 1199.75,938.245 1183.08,986.245 1170,1035.5C 1164.13,1056.83 1162.29,1078.5 1164.5,1100.5 Z"/></g>
<g><path style="opacity:1" fill="#e68c59" d="M 1190.5,716.5 C 1194.69,716.428 1198.69,717.261 1202.5,719C 1210.05,726.293 1213.72,735.293 1213.5,746C 1211.97,767.201 1202.97,784.534 1186.5,798C 1178.32,803.462 1169.32,805.962 1159.5,805.5C 1166.71,778.082 1174.21,750.749 1182,723.5C 1184.22,720.323 1187.05,717.989 1190.5,716.5 Z"/></g>
<g><path style="opacity:1" fill="#ed9328" d="M 598.5,775.5 C 601.558,781.808 604.724,788.142 608,794.5C 618.502,808.665 630.336,821.498 643.5,833C 649.973,837.218 656.307,841.384 662.5,845.5C 662.987,853.818 666.487,855.485 673,850.5C 673.49,849.207 673.657,847.873 673.5,846.5C 676.5,846.5 679.5,846.5 682.5,846.5C 683.373,851.907 684.539,857.24 686,862.5C 687.032,864.027 688.199,865.36 689.5,866.5C 686.052,869.078 682.719,871.911 679.5,875C 673.728,878.239 668.062,878.239 662.5,875C 659.067,871.958 656.234,868.458 654,864.5C 651.684,875.184 654.518,884.184 662.5,891.5C 673.776,895.91 682.109,892.743 687.5,882C 688.361,878.863 689.027,875.697 689.5,872.5C 695.873,883.569 702.04,894.903 708,906.5C 718.769,919.271 730.269,931.438 742.5,943C 765.328,962.234 789.328,979.734 814.5,995.5C 815.833,996.5 817.167,997.5 818.5,998.5C 820.853,1018.09 821.853,1037.75 821.5,1057.5C 821.64,1063.54 821.307,1069.54 820.5,1075.5C 803.868,1071.83 787.202,1071.66 770.5,1075C 747.677,1082.27 724.677,1088.94 701.5,1095C 679.146,1099.17 656.813,1103.34 634.5,1107.5C 626.693,1109.06 619.026,1110.73 611.5,1112.5C 608.098,1112.34 604.764,1112.68 601.5,1113.5C 597.751,1099.43 595.251,1085.1 594,1070.5C 586.798,984.971 586.964,899.471 594.5,814C 594.497,811.31 594.164,808.81 593.5,806.5C 595.249,796.17 596.916,785.837 598.5,775.5 Z"/></g>
<g><path style="opacity:1" fill="#fdfdfa" d="M 1162.5,818.5 C 1172.35,819.432 1174.01,823.599 1167.5,831C 1160.24,832.033 1157.41,828.867 1159,821.5C 1160.15,820.364 1161.31,819.364 1162.5,818.5 Z"/></g>
<g><path style="opacity:1" fill="#fcfaf6" d="M 663.5,822.5 C 673.766,822.262 676.099,826.428 670.5,835C 660.102,835.471 657.768,831.305 663.5,822.5 Z"/></g>
<g><path style="opacity:1" fill="#fdfbf7" d="M 673.5,846.5 C 673.657,847.873 673.49,849.207 673,850.5C 666.487,855.485 662.987,853.818 662.5,845.5C 666.435,841.316 670.102,841.649 673.5,846.5 Z"/></g>
<g><path style="opacity:1" fill="#f8b333" d="M 593.5,806.5 C 594.164,808.81 594.497,811.31 594.5,814C 586.964,899.471 586.798,984.971 594,1070.5C 595.251,1085.1 597.751,1099.43 601.5,1113.5C 594.178,1114.04 586.845,1114.37 579.5,1114.5C 570.143,1114.35 560.809,1114.68 551.5,1115.5C 544.5,1115.5 537.5,1115.5 530.5,1115.5C 522.088,1108.83 518.088,1100 518.5,1089C 521.532,1045.18 527.032,1001.68 535,958.5C 547.209,916.876 559.209,875.21 571,833.5C 571.333,832.833 571.667,832.167 572,831.5C 572.167,832.833 572.333,834.167 572.5,835.5C 571.335,843.145 570.835,850.812 571,858.5C 582.034,842.758 589.534,825.425 593.5,806.5 Z"/></g>
<g><path style="opacity:1" fill="#fdfaf4" d="M 667.5,860.5 C 675.49,860.086 677.49,863.253 673.5,870C 665.805,870.443 663.805,867.277 667.5,860.5 Z"/></g>
<g><path style="opacity:1" fill="#f8b333" d="M 1171.5,875.5 C 1174.18,875.327 1176.51,874.327 1178.5,872.5C 1182.57,868.601 1186.07,864.267 1189,859.5C 1189.67,864.833 1189.67,870.167 1189,875.5C 1186.59,889.413 1178.43,895.413 1164.5,893.5C 1153.86,891.699 1146.7,885.699 1143,875.5C 1142.32,870.129 1142.49,864.796 1143.5,859.5C 1144.5,859.5 1145.5,859.5 1146.5,859.5C 1146.49,861.308 1146.99,862.975 1148,864.5C 1151.32,866.819 1154.32,869.485 1157,872.5C 1161.5,875.963 1166.33,876.963 1171.5,875.5 Z"/></g>
<g><path style="opacity:1" fill="#fcf8f2" d="M 1170.5,860.5 C 1172.01,863.737 1171.68,866.737 1169.5,869.5C 1164.58,870.762 1161.91,868.929 1161.5,864C 1161.44,862.289 1162.11,860.956 1163.5,860C 1165.93,859.297 1168.26,859.463 1170.5,860.5 Z"/></g>
<g><path style="opacity:1" fill="#f8b333" d="M 689.5,866.5 C 689.5,868.5 689.5,870.5 689.5,872.5C 689.027,875.697 688.361,878.863 687.5,882C 682.109,892.743 673.776,895.91 662.5,891.5C 654.518,884.184 651.684,875.184 654,864.5C 656.234,868.458 659.067,871.958 662.5,875C 668.062,878.239 673.728,878.239 679.5,875C 682.719,871.911 686.052,869.078 689.5,866.5 Z"/></g>
<g><path style="opacity:1" fill="#ed9328" d="M 1172.5,836.5 C 1171.79,844.493 1171.12,852.493 1170.5,860.5C 1168.26,859.463 1165.93,859.297 1163.5,860C 1162.11,860.956 1161.44,862.289 1161.5,864C 1161.91,868.929 1164.58,870.762 1169.5,869.5C 1169.74,871.467 1169.41,873.301 1168.5,875C 1169.45,875.483 1170.45,875.649 1171.5,875.5C 1166.33,876.963 1161.5,875.963 1157,872.5C 1154.32,869.485 1151.32,866.819 1148,864.5C 1146.99,862.975 1146.49,861.308 1146.5,859.5C 1145.5,859.5 1144.5,859.5 1143.5,859.5C 1142.49,864.796 1142.32,870.129 1143,875.5C 1146.7,885.699 1153.86,891.699 1164.5,893.5C 1161.53,905.198 1158.36,916.864 1155,928.5C 1147.87,948.026 1141.2,967.693 1135,987.5C 1122.91,1018.88 1110.08,1049.88 1096.5,1080.5C 1092.15,1078.66 1087.81,1076.82 1083.5,1075C 1078.17,1074.33 1072.83,1074.33 1067.5,1075C 1054.79,1077.74 1042.46,1081.57 1030.5,1086.5C 1028.7,1073.52 1027.04,1060.52 1025.5,1047.5C 1025.01,1026.01 1026.51,1004.68 1030,983.5C 1047.83,969 1065.67,954.5 1083.5,940C 1094.67,929.5 1105.5,918.667 1116,907.5C 1124.17,897.843 1130.83,887.176 1136,875.5C 1139.35,864.436 1142.85,853.436 1146.5,842.5C 1155.44,841.517 1164.11,839.517 1172.5,836.5 Z"/></g>
<g><path style="opacity:1" fill="#fdfaf5" d="M 1161.5,843.5 C 1169.22,842.87 1171.22,845.87 1167.5,852.5C 1162.93,854.381 1160.26,852.881 1159.5,848C 1159.52,846.167 1160.19,844.667 1161.5,843.5 Z"/></g>
<g><path style="opacity:1" fill="#f18e5d" d="M 818.5,998.5 C 847.602,1016.21 878.602,1029.88 911.5,1039.5C 927.301,1037.07 942.634,1032.9 957.5,1027C 973.469,1019.18 989.136,1011.18 1004.5,1003C 992.245,1018.92 978.579,1033.59 963.5,1047C 944.252,1062.76 922.252,1068.59 897.5,1064.5C 897.5,1063.83 897.167,1063.5 896.5,1063.5C 887.428,1061.63 879.428,1057.63 872.5,1051.5C 867.267,1056.97 862.267,1062.64 857.5,1068.5C 845.14,1065.99 833.14,1062.32 821.5,1057.5C 821.853,1037.75 820.853,1018.09 818.5,998.5 Z"/></g>
<g><path style="opacity:1" fill="#e53034" d="M 1025.5,1047.5 C 1027.04,1060.52 1028.7,1073.52 1030.5,1086.5C 1032.14,1089.83 1031.8,1092.83 1029.5,1095.5C 1011.91,1108.96 992.576,1119.3 971.5,1126.5C 974.307,1111.46 974.141,1096.46 971,1081.5C 969.214,1078.26 967.714,1074.93 966.5,1071.5C 987.484,1066.62 1007.15,1058.62 1025.5,1047.5 Z"/></g>
<g><path style="opacity:1" fill="#fccea5" d="M 896.5,1063.5 C 893.512,1067.46 890.512,1071.46 887.5,1075.5C 877.441,1073.78 867.441,1071.78 857.5,1069.5C 857.5,1069.17 857.5,1068.83 857.5,1068.5C 862.267,1062.64 867.267,1056.97 872.5,1051.5C 879.428,1057.63 887.428,1061.63 896.5,1063.5 Z"/></g>
<g><path style="opacity:1" fill="#a02625" d="M 821.5,1057.5 C 833.14,1062.32 845.14,1065.99 857.5,1068.5C 857.5,1068.83 857.5,1069.17 857.5,1069.5C 844.827,1084.31 832.494,1099.31 820.5,1114.5C 820.5,1112.83 820.5,1111.17 820.5,1109.5C 820.5,1098.17 820.5,1086.83 820.5,1075.5C 821.307,1069.54 821.64,1063.54 821.5,1057.5 Z"/></g>
<g><path style="opacity:1" fill="#e53034" d="M 857.5,1069.5 C 867.441,1071.78 877.441,1073.78 887.5,1075.5C 876.971,1093.1 875.637,1111.43 883.5,1130.5C 867.95,1128.89 852.617,1126.06 837.5,1122C 831.452,1120.16 825.786,1117.66 820.5,1114.5C 832.494,1099.31 844.827,1084.31 857.5,1069.5 Z"/></g>
<g><path style="opacity:1" fill="#1536b0" d="M 820.5,1075.5 C 820.5,1086.83 820.5,1098.17 820.5,1109.5C 812.602,1114.25 806.769,1120.92 803,1129.5C 799.04,1141.18 797.707,1153.18 799,1165.5C 802.372,1192.62 810.372,1218.28 823,1242.5C 839.748,1271.66 856.748,1300.66 874,1329.5C 889.95,1357.86 901.45,1387.86 908.5,1419.5C 906.901,1419.23 905.568,1419.57 904.5,1420.5C 888.692,1422.58 874.359,1428.24 861.5,1437.5C 796.653,1357.86 736.153,1274.86 680,1188.5C 664.5,1162.17 649,1135.83 633.5,1109.5C 633.863,1108.82 634.196,1108.15 634.5,1107.5C 656.813,1103.34 679.146,1099.17 701.5,1095C 724.677,1088.94 747.677,1082.27 770.5,1075C 787.202,1071.66 803.868,1071.83 820.5,1075.5 Z"/></g>
<g><path style="opacity:1" fill="#1536b0" d="M 1096.5,1080.5 C 1105.06,1084.86 1114.06,1088.36 1123.5,1091C 1137.07,1094.64 1150.74,1097.81 1164.5,1100.5C 1181.62,1104.32 1198.95,1106.99 1216.5,1108.5C 1216.77,1115.23 1216.27,1121.9 1215,1128.5C 1198.45,1184.28 1172.45,1234.95 1137,1280.5C 1102.42,1321.57 1069.59,1363.9 1038.5,1407.5C 1026.79,1415.03 1015.46,1423.2 1004.5,1432C 998.908,1437.75 993.908,1443.92 989.5,1450.5C 971.65,1431.58 949.65,1421.24 923.5,1419.5C 931.851,1385.27 945.351,1353.27 964,1323.5C 990.223,1290.06 1014.22,1255.06 1036,1218.5C 1047.43,1199.33 1053.93,1178.67 1055.5,1156.5C 1055.91,1143.16 1051.24,1131.99 1041.5,1123C 1038.85,1120.95 1035.85,1119.78 1032.5,1119.5C 1031.5,1111.49 1030.5,1103.49 1029.5,1095.5C 1031.8,1092.83 1032.14,1089.83 1030.5,1086.5C 1042.46,1081.57 1054.79,1077.74 1067.5,1075C 1072.83,1074.33 1078.17,1074.33 1083.5,1075C 1087.81,1076.82 1092.15,1078.66 1096.5,1080.5 Z"/></g>
<g><path style="opacity:1" fill="#e53034" d="M 955.5,1074.5 C 956.548,1084.43 954.714,1093.76 950,1102.5C 947.963,1104.71 945.797,1106.71 943.5,1108.5C 939.485,1109.89 935.485,1111.39 931.5,1113C 927.514,1113.5 923.514,1113.67 919.5,1113.5C 907.035,1110.2 899.535,1102.2 897,1089.5C 896.501,1085.18 896.334,1080.85 896.5,1076.5C 916.238,1077.97 935.905,1077.3 955.5,1074.5 Z"/></g>
<g><path style="opacity:1" fill="#f8b334" d="M 896.5,1063.5 C 897.167,1063.5 897.5,1063.83 897.5,1064.5C 896.979,1068.48 896.646,1072.48 896.5,1076.5C 896.334,1080.85 896.501,1085.18 897,1089.5C 899.535,1102.2 907.035,1110.2 919.5,1113.5C 913.259,1125.08 906.593,1136.41 899.5,1147.5C 895.218,1144.72 891.384,1141.39 888,1137.5C 886.974,1134.76 885.474,1132.43 883.5,1130.5C 875.637,1111.43 876.971,1093.1 887.5,1075.5C 890.512,1071.46 893.512,1067.46 896.5,1063.5 Z"/></g>
<g><path style="opacity:1" fill="#f8b334" d="M 966.5,1071.5 C 967.714,1074.93 969.214,1078.26 971,1081.5C 974.141,1096.46 974.307,1111.46 971.5,1126.5C 967.74,1134.43 962.073,1140.59 954.5,1145C 948.937,1147.62 943.271,1149.95 937.5,1152C 935.613,1152.78 933.946,1152.61 932.5,1151.5C 935.783,1137.09 939.45,1122.76 943.5,1108.5C 945.797,1106.71 947.963,1104.71 950,1102.5C 954.714,1093.76 956.548,1084.43 955.5,1074.5C 955.716,1070.51 955.049,1066.68 953.5,1063C 953.833,1062.5 954.167,1062 954.5,1061.5C 958.98,1064.39 962.98,1067.72 966.5,1071.5 Z"/></g>
<g><path style="opacity:1" fill="#1836b0" d="M 1186.5,1351.5 C 1172.06,1354.03 1157.73,1357.03 1143.5,1360.5C 1149.93,1352.57 1156.93,1345.07 1164.5,1338C 1177.87,1326.29 1191.54,1314.96 1205.5,1304C 1232.66,1275.18 1257.16,1244.35 1279,1211.5C 1286.16,1196.19 1291.16,1180.19 1294,1163.5C 1297.65,1141.31 1299.82,1118.98 1300.5,1096.5C 1312,1093.78 1323.33,1090.45 1334.5,1086.5C 1333.47,1123.21 1327.63,1159.21 1317,1194.5C 1311.08,1213.69 1301.08,1230.36 1287,1244.5C 1254.03,1280.64 1220.53,1316.31 1186.5,1351.5 Z"/></g>
<g><path style="opacity:1" fill="#fccfa6" d="M 1029.5,1095.5 C 1030.5,1103.49 1031.5,1111.49 1032.5,1119.5C 1035.85,1119.78 1038.85,1120.95 1041.5,1123C 1051.24,1131.99 1055.91,1143.16 1055.5,1156.5C 1053.93,1178.67 1047.43,1199.33 1036,1218.5C 1014.22,1255.06 990.223,1290.06 964,1323.5C 945.351,1353.27 931.851,1385.27 923.5,1419.5C 919.154,1419.33 914.821,1419.5 910.5,1420C 909.975,1420.69 909.308,1421.19 908.5,1421.5C 907.264,1420.75 905.93,1420.42 904.5,1420.5C 905.568,1419.57 906.901,1419.23 908.5,1419.5C 901.45,1387.86 889.95,1357.86 874,1329.5C 856.748,1300.66 839.748,1271.66 823,1242.5C 810.372,1218.28 802.372,1192.62 799,1165.5C 797.707,1153.18 799.04,1141.18 803,1129.5C 806.769,1120.92 812.602,1114.25 820.5,1109.5C 820.5,1111.17 820.5,1112.83 820.5,1114.5C 825.786,1117.66 831.452,1120.16 837.5,1122C 852.617,1126.06 867.95,1128.89 883.5,1130.5C 885.474,1132.43 886.974,1134.76 888,1137.5C 891.384,1141.39 895.218,1144.72 899.5,1147.5C 909.828,1152.67 920.828,1154.83 932.5,1154C 931.226,1153.02 931.226,1152.19 932.5,1151.5C 933.946,1152.61 935.613,1152.78 937.5,1152C 943.271,1149.95 948.937,1147.62 954.5,1145C 962.073,1140.59 967.74,1134.43 971.5,1126.5C 992.576,1119.3 1011.91,1108.96 1029.5,1095.5 Z"/></g>
<g><path style="opacity:1" fill="#1736b1" d="M 1276.5,1102.5 C 1276.61,1146.07 1265.77,1186.74 1244,1224.5C 1232.97,1240.56 1220.97,1255.89 1208,1270.5C 1179.64,1300.53 1150.3,1329.53 1120,1357.5C 1116.91,1361.35 1114.08,1365.35 1111.5,1369.5C 1097.68,1375.91 1084.02,1382.57 1070.5,1389.5C 1111.81,1338.9 1152.64,1287.9 1193,1236.5C 1215.87,1196.08 1232.37,1153.08 1242.5,1107.5C 1243.17,1107.5 1243.83,1107.5 1244.5,1107.5C 1255.2,1106.02 1265.86,1104.35 1276.5,1102.5 Z"/></g>
<g><path style="opacity:1" fill="#fefdfb" d="M 943.5,1108.5 C 939.45,1122.76 935.783,1137.09 932.5,1151.5C 931.226,1152.19 931.226,1153.02 932.5,1154C 920.828,1154.83 909.828,1152.67 899.5,1147.5C 906.593,1136.41 913.259,1125.08 919.5,1113.5C 923.514,1113.67 927.514,1113.5 931.5,1113C 935.485,1111.39 939.485,1109.89 943.5,1108.5 Z"/></g>
<g><path style="opacity:1" fill="#1737b1" d="M 611.5,1112.5 C 613.129,1113.63 614.629,1114.96 616,1116.5C 640.367,1154.57 662.7,1193.9 683,1234.5C 719.301,1289.14 758.301,1341.81 800,1392.5C 807.679,1402.54 814.846,1412.88 821.5,1423.5C 804.475,1411.32 787.142,1399.66 769.5,1388.5C 760.672,1372.84 750.838,1357.84 740,1343.5C 726.333,1328.5 712.667,1313.5 699,1298.5C 680.74,1277.91 664.406,1255.91 650,1232.5C 634.038,1198.91 616.038,1166.58 596,1135.5C 590.483,1128.44 584.983,1121.44 579.5,1114.5C 586.845,1114.37 594.178,1114.04 601.5,1113.5C 604.764,1112.68 608.098,1112.34 611.5,1112.5 Z"/></g>
<g><path style="opacity:1" fill="#e7e8e7" d="M 1242.5,1107.5 C 1232.37,1153.08 1215.87,1196.08 1193,1236.5C 1152.64,1287.9 1111.81,1338.9 1070.5,1389.5C 1060.09,1395.89 1049.43,1401.89 1038.5,1407.5C 1069.59,1363.9 1102.42,1321.57 1137,1280.5C 1172.45,1234.95 1198.45,1184.28 1215,1128.5C 1216.27,1121.9 1216.77,1115.23 1216.5,1108.5C 1225.17,1108.17 1233.83,1107.83 1242.5,1107.5 Z"/></g>
<g><path style="opacity:1" fill="#e7e8e7" d="M 579.5,1114.5 C 584.983,1121.44 590.483,1128.44 596,1135.5C 616.038,1166.58 634.038,1198.91 650,1232.5C 664.406,1255.91 680.74,1277.91 699,1298.5C 712.667,1313.5 726.333,1328.5 740,1343.5C 750.838,1357.84 760.672,1372.84 769.5,1388.5C 759.767,1383.3 749.767,1378.63 739.5,1374.5C 718.056,1346.88 694.556,1320.88 669,1296.5C 653.18,1276.2 638.847,1254.87 626,1232.5C 614.333,1211.83 602.667,1191.17 591,1170.5C 578.314,1151.78 565.148,1133.45 551.5,1115.5C 560.809,1114.68 570.143,1114.35 579.5,1114.5 Z"/></g>
<g><path style="opacity:1" fill="#1736b0" d="M 507.5,1114.5 C 515.154,1115.07 522.821,1115.4 530.5,1115.5C 537.5,1115.5 544.5,1115.5 551.5,1115.5C 565.148,1133.45 578.314,1151.78 591,1170.5C 602.667,1191.17 614.333,1211.83 626,1232.5C 638.847,1254.87 653.18,1276.2 669,1296.5C 694.556,1320.88 718.056,1346.88 739.5,1374.5C 726.265,1370.19 712.931,1366.19 699.5,1362.5C 677.839,1340.01 656.339,1317.34 635,1294.5C 627,1285.17 619,1275.83 611,1266.5C 583.969,1220.49 554.969,1175.82 524,1132.5C 518.707,1126.2 513.207,1120.2 507.5,1114.5 Z"/></g>
<g><path style="opacity:1" fill="#e8e8e7" d="M 634.5,1107.5 C 634.196,1108.15 633.863,1108.82 633.5,1109.5C 649,1135.83 664.5,1162.17 680,1188.5C 736.153,1274.86 796.653,1357.86 861.5,1437.5C 857.233,1440.43 853.233,1443.76 849.5,1447.5C 840.461,1439.13 831.128,1431.13 821.5,1423.5C 814.846,1412.88 807.679,1402.54 800,1392.5C 758.301,1341.81 719.301,1289.14 683,1234.5C 662.7,1193.9 640.367,1154.57 616,1116.5C 614.629,1114.96 613.129,1113.63 611.5,1112.5C 619.026,1110.73 626.693,1109.06 634.5,1107.5 Z"/></g>
<g><path style="opacity:1" fill="#e8e8e7" d="M 1300.5,1096.5 C 1299.82,1118.98 1297.65,1141.31 1294,1163.5C 1291.16,1180.19 1286.16,1196.19 1279,1211.5C 1257.16,1244.35 1232.66,1275.18 1205.5,1304C 1191.54,1314.96 1177.87,1326.29 1164.5,1338C 1156.93,1345.07 1149.93,1352.57 1143.5,1360.5C 1132.64,1362.88 1121.97,1365.88 1111.5,1369.5C 1114.08,1365.35 1116.91,1361.35 1120,1357.5C 1150.3,1329.53 1179.64,1300.53 1208,1270.5C 1220.97,1255.89 1232.97,1240.56 1244,1224.5C 1265.77,1186.74 1276.61,1146.07 1276.5,1102.5C 1284.4,1100.19 1292.4,1098.19 1300.5,1096.5 Z"/></g>
<g><path style="opacity:1" fill="#e13030" d="M 1273.5,1478.5 C 1268.98,1492.78 1264.48,1507.78 1260,1523.5C 1257.31,1530.38 1254.48,1537.21 1251.5,1544C 1251.61,1545.72 1252.11,1545.89 1253,1544.5C 1258.02,1534.45 1263.52,1524.78 1269.5,1515.5C 1269.82,1547.86 1269.16,1580.19 1267.5,1612.5C 1265.15,1634.94 1261.32,1657.28 1256,1679.5C 1254.26,1683.55 1252.43,1687.55 1250.5,1691.5C 1249.64,1693.2 1248.3,1694.36 1246.5,1695C 1236.15,1695.73 1225.82,1695.57 1215.5,1694.5C 1188.41,1690.16 1161.41,1685.33 1134.5,1680C 1121.52,1675.6 1108.85,1670.6 1096.5,1665C 1087.34,1659.25 1078,1653.75 1068.5,1648.5C 1067.61,1647.68 1067.28,1646.68 1067.5,1645.5C 1062.46,1642.98 1057.8,1639.81 1053.5,1636C 1052.17,1635.67 1050.83,1635.33 1049.5,1635C 1048.63,1632.63 1046.96,1631.13 1044.5,1630.5C 1043.61,1629.68 1043.28,1628.68 1043.5,1627.5C 1039.12,1626.81 1035.79,1624.48 1033.5,1620.5C 1029.42,1618.17 1025.76,1615.34 1022.5,1612C 1021.55,1611.52 1020.55,1611.35 1019.5,1611.5C 1019.27,1609.57 1018.44,1607.9 1017,1606.5C 1007.65,1598.32 998.487,1589.98 989.5,1581.5C 1003.01,1565.49 1011.34,1547.15 1014.5,1526.5C 1021.54,1526.41 1028.54,1526.91 1035.5,1528C 1043.25,1531.1 1051.25,1533.27 1059.5,1534.5C 1052.68,1524.53 1043.02,1519.86 1030.5,1520.5C 1024.91,1520.25 1019.58,1521.25 1014.5,1523.5C 1015.89,1495.67 1007.56,1471.34 989.5,1450.5C 993.908,1443.92 998.908,1437.75 1004.5,1432C 1015.46,1423.2 1026.79,1415.03 1038.5,1407.5C 1049.43,1401.89 1060.09,1395.89 1070.5,1389.5C 1084.02,1382.57 1097.68,1375.91 1111.5,1369.5C 1121.97,1365.88 1132.64,1362.88 1143.5,1360.5C 1157.73,1357.03 1172.06,1354.03 1186.5,1351.5C 1217.98,1346.44 1249.65,1343.11 1281.5,1341.5C 1283.43,1359.45 1283.93,1377.45 1283,1395.5C 1281.05,1423.45 1277.88,1451.12 1273.5,1478.5 Z"/></g>
<g><path style="opacity:1" fill="#e13030" d="M 699.5,1362.5 C 712.931,1366.19 726.265,1370.19 739.5,1374.5C 749.767,1378.63 759.767,1383.3 769.5,1388.5C 787.142,1399.66 804.475,1411.32 821.5,1423.5C 831.128,1431.13 840.461,1439.13 849.5,1447.5C 830.195,1467.47 820.862,1491.47 821.5,1519.5C 809.707,1508.43 796.374,1499.6 781.5,1493C 772.939,1491.01 764.272,1489.85 755.5,1489.5C 755.36,1491.12 756.027,1492.29 757.5,1493C 764.697,1495.51 772.03,1497.51 779.5,1499C 793.66,1506.36 807.66,1513.86 821.5,1521.5C 823.367,1544.88 832.034,1565.22 847.5,1582.5C 843.158,1586.34 838.824,1590.17 834.5,1594C 820.341,1602.92 806.674,1612.58 793.5,1623C 768.97,1640.1 743.97,1656.43 718.5,1672C 697.307,1684.76 674.974,1695.1 651.5,1703C 644.202,1704.28 636.869,1704.62 629.5,1704C 625.726,1702.7 622.559,1700.53 620,1697.5C 613.419,1690.27 608.086,1682.27 604,1673.5C 598.655,1660.63 594.822,1647.3 592.5,1633.5C 590.989,1624.68 589.322,1616.02 587.5,1607.5C 585.921,1576.48 586.254,1545.48 588.5,1514.5C 588.138,1496.86 585.638,1479.52 581,1462.5C 576.745,1431.97 575.411,1401.31 577,1370.5C 578.695,1362.47 583.528,1357.3 591.5,1355C 600.708,1352.91 610.041,1351.74 619.5,1351.5C 632.855,1352.44 646.188,1353.6 659.5,1355C 672.836,1357.57 686.169,1360.07 699.5,1362.5 Z"/></g>
<g><path style="opacity:1" fill="#a4231c" d="M 1071.5,1448.5 C 1072.82,1448.33 1073.99,1448.66 1075,1449.5C 1081.96,1457.2 1082.29,1465.2 1076,1473.5C 1064.38,1481.81 1051.55,1486.98 1037.5,1489C 1046.78,1485.45 1054.94,1480.29 1062,1473.5C 1065.74,1468.53 1068.57,1463.03 1070.5,1457C 1071.22,1454.21 1071.55,1451.37 1071.5,1448.5 Z"/></g>
<g><path style="opacity:1" fill="#f8b334" d="M 923.5,1419.5 C 949.65,1421.24 971.65,1431.58 989.5,1450.5C 1007.56,1471.34 1015.89,1495.67 1014.5,1523.5C 1014.5,1524.5 1014.5,1525.5 1014.5,1526.5C 1011.34,1547.15 1003.01,1565.49 989.5,1581.5C 981.627,1589.71 972.627,1596.38 962.5,1601.5C 936.182,1614.59 909.182,1615.92 881.5,1605.5C 872.184,1601.51 863.518,1596.51 855.5,1590.5C 853.167,1587.5 850.5,1584.83 847.5,1582.5C 832.034,1565.22 823.367,1544.88 821.5,1521.5C 821.5,1520.83 821.5,1520.17 821.5,1519.5C 820.862,1491.47 830.195,1467.47 849.5,1447.5C 853.233,1443.76 857.233,1440.43 861.5,1437.5C 874.359,1428.24 888.692,1422.58 904.5,1420.5C 905.93,1420.42 907.264,1420.75 908.5,1421.5C 909.308,1421.19 909.975,1420.69 910.5,1420C 914.821,1419.5 919.154,1419.33 923.5,1419.5 Z"/></g>
<g><path style="opacity:1" fill="#501e20" d="M 944.5,1526.5 C 944.5,1527.17 944.5,1527.83 944.5,1528.5C 939.56,1540.42 930.56,1547.08 917.5,1548.5C 916.391,1548.56 915.391,1548.89 914.5,1549.5C 904.141,1547.66 896.141,1542.32 890.5,1533.5C 889.892,1530.67 888.892,1528.01 887.5,1525.5C 886.131,1504.53 895.798,1492.86 916.5,1490.5C 937.823,1493.14 947.156,1505.14 944.5,1526.5 Z"/></g>
<g><path style="opacity:1" fill="#a4231c" d="M 821.5,1519.5 C 821.5,1520.17 821.5,1520.83 821.5,1521.5C 807.66,1513.86 793.66,1506.36 779.5,1499C 772.03,1497.51 764.697,1495.51 757.5,1493C 756.027,1492.29 755.36,1491.12 755.5,1489.5C 764.272,1489.85 772.939,1491.01 781.5,1493C 796.374,1499.6 809.707,1508.43 821.5,1519.5 Z"/></g>
<g><path style="opacity:1" fill="#a5241c" d="M 1273.5,1478.5 C 1272.91,1486.25 1271.74,1493.91 1270,1501.5C 1269.5,1506.15 1269.33,1510.82 1269.5,1515.5C 1263.52,1524.78 1258.02,1534.45 1253,1544.5C 1252.11,1545.89 1251.61,1545.72 1251.5,1544C 1254.48,1537.21 1257.31,1530.38 1260,1523.5C 1264.48,1507.78 1268.98,1492.78 1273.5,1478.5 Z"/></g>
<g><path style="opacity:1" fill="#a3231c" d="M 1014.5,1526.5 C 1014.5,1525.5 1014.5,1524.5 1014.5,1523.5C 1019.58,1521.25 1024.91,1520.25 1030.5,1520.5C 1043.02,1519.86 1052.68,1524.53 1059.5,1534.5C 1051.25,1533.27 1043.25,1531.1 1035.5,1528C 1028.54,1526.91 1021.54,1526.41 1014.5,1526.5 Z"/></g>
<g><path style="opacity:1" fill="#a6231c" d="M 728.5,1525.5 C 731.078,1531.91 735.745,1536.07 742.5,1538C 749.758,1539.49 757.091,1540.32 764.5,1540.5C 772.163,1539.76 779.83,1539.6 787.5,1540C 771.627,1543.21 755.627,1544.88 739.5,1545C 734.292,1544.37 729.625,1542.54 725.5,1539.5C 723.742,1534.22 724.742,1529.55 728.5,1525.5 Z"/></g>
<g><path style="opacity:1" fill="#f16da3" d="M 910.5,1469.5 C 909.076,1471.51 908.41,1473.85 908.5,1476.5C 906.851,1481.05 905.184,1485.72 903.5,1490.5C 883.508,1491.33 863.508,1491.83 843.5,1492C 856.416,1501.61 869.083,1511.44 881.5,1521.5C 883.754,1522.42 885.754,1523.75 887.5,1525.5C 888.892,1528.01 889.892,1530.67 890.5,1533.5C 884.799,1550.76 879.633,1568.09 875,1585.5C 884.095,1576.56 893.595,1568.23 903.5,1560.5C 904.767,1569.26 909.767,1572.76 918.5,1571C 924.358,1568.46 927.025,1563.96 926.5,1557.5C 937.461,1566.62 948.295,1575.96 959,1585.5C 954.942,1566.27 950.108,1547.27 944.5,1528.5C 944.5,1527.83 944.5,1527.17 944.5,1526.5C 946.062,1526.27 947.395,1525.6 948.5,1524.5C 949.879,1537.36 956.545,1541.19 968.5,1536C 973.757,1530.03 973.757,1524.03 968.5,1518C 966.35,1516.59 964.016,1515.76 961.5,1515.5C 971.483,1507.7 981.649,1500.03 992,1492.5C 1001.87,1525.86 994.702,1555.03 970.5,1580C 940.809,1603.54 909.142,1606.54 875.5,1589C 842.864,1565.03 831.364,1533.19 841,1493.5C 856.1,1454.52 884.6,1436.02 926.5,1438C 958.656,1443.34 980.322,1461.17 991.5,1491.5C 972.5,1491.5 953.5,1491.5 934.5,1491.5C 930.655,1473.63 925.988,1455.96 920.5,1438.5C 916.766,1448.7 913.433,1459.03 910.5,1469.5 Z"/></g>
<g><path style="opacity:1" fill="#233178" d="M 917.5,1548.5 C 920.806,1551.14 923.806,1554.14 926.5,1557.5C 927.025,1563.96 924.358,1568.46 918.5,1571C 909.767,1572.76 904.767,1569.26 903.5,1560.5C 906.833,1556.5 910.5,1552.83 914.5,1549.5C 915.391,1548.89 916.391,1548.56 917.5,1548.5 Z"/></g>
<g><path style="opacity:1" fill="#f7b235" d="M 890.5,1533.5 C 896.141,1542.32 904.141,1547.66 914.5,1549.5C 910.5,1552.83 906.833,1556.5 903.5,1560.5C 893.595,1568.23 884.095,1576.56 875,1585.5C 879.633,1568.09 884.799,1550.76 890.5,1533.5 Z"/></g>
<g><path style="opacity:1" fill="#f8b234" d="M 944.5,1528.5 C 950.108,1547.27 954.942,1566.27 959,1585.5C 948.295,1575.96 937.461,1566.62 926.5,1557.5C 923.806,1554.14 920.806,1551.14 917.5,1548.5C 930.56,1547.08 939.56,1540.42 944.5,1528.5 Z"/></g>
<g><path style="opacity:1" fill="#b18e5d" d="M 881.5,1521.5 C 887.06,1531 884.56,1537 874,1539.5C 866.087,1538.17 863.087,1533.5 865,1525.5C 869.242,1519.19 874.742,1517.86 881.5,1521.5 Z"/></g>
<g><path style="opacity:1" fill="#d26c46" d="M 961.5,1515.5 C 964.016,1515.76 966.35,1516.59 968.5,1518C 973.757,1524.03 973.757,1530.03 968.5,1536C 956.545,1541.19 949.879,1537.36 948.5,1524.5C 952.553,1521.12 956.886,1518.12 961.5,1515.5 Z"/></g>
<g><path style="opacity:1" fill="#531f21" d="M 908.5,1476.5 C 908.41,1473.85 909.076,1471.51 910.5,1469.5C 914.812,1466.21 919.479,1465.71 924.5,1468C 929.216,1472.69 929.716,1477.86 926,1483.5C 916.791,1489.23 910.957,1486.89 908.5,1476.5 Z"/></g>
<g><path style="opacity:1" fill="#c52f2f" d="M 989.5,1581.5 C 998.487,1589.98 1007.65,1598.32 1017,1606.5C 1018.44,1607.9 1019.27,1609.57 1019.5,1611.5C 1020.55,1611.35 1021.55,1611.52 1022.5,1612C 1025.76,1615.34 1029.42,1618.17 1033.5,1620.5C 1035.79,1624.48 1039.12,1626.81 1043.5,1627.5C 1043.28,1628.68 1043.61,1629.68 1044.5,1630.5C 1046.96,1631.13 1048.63,1632.63 1049.5,1635C 1050.83,1635.33 1052.17,1635.67 1053.5,1636C 1057.8,1639.81 1062.46,1642.98 1067.5,1645.5C 1067.28,1646.68 1067.61,1647.68 1068.5,1648.5C 1078,1653.75 1087.34,1659.25 1096.5,1665C 1108.85,1670.6 1121.52,1675.6 1134.5,1680C 1161.41,1685.33 1188.41,1690.16 1215.5,1694.5C 1225.82,1695.57 1236.15,1695.73 1246.5,1695C 1248.3,1694.36 1249.64,1693.2 1250.5,1691.5C 1252.43,1687.55 1254.26,1683.55 1256,1679.5C 1261.32,1657.28 1265.15,1634.94 1267.5,1612.5C 1286.9,1622.12 1304.07,1634.79 1319,1650.5C 1321.49,1653.47 1322.82,1656.8 1323,1660.5C 1279.39,1718.46 1231.89,1773.29 1180.5,1825C 1167.13,1836.71 1153.46,1848.04 1139.5,1859C 1133.73,1862.3 1127.9,1865.47 1122,1868.5C 1084.76,1808.92 1047.09,1749.58 1009,1690.5C 991.899,1661.63 976.399,1631.96 962.5,1601.5C 972.627,1596.38 981.627,1589.71 989.5,1581.5 Z"/></g>
<g><path style="opacity:1" fill="#c42f2f" d="M 855.5,1590.5 C 863.518,1596.51 872.184,1601.51 881.5,1605.5C 836.238,1689.36 788.405,1771.69 738,1852.5C 736.022,1855.65 733.522,1858.31 730.5,1860.5C 689.019,1824.85 647.686,1789.02 606.5,1753C 576.974,1724.47 547.807,1695.64 519,1666.5C 517.578,1663.97 517.245,1661.3 518,1658.5C 519.738,1654.76 522.238,1651.59 525.5,1649C 540.088,1637.91 555.421,1627.91 571.5,1619C 576.735,1614.92 582.069,1611.08 587.5,1607.5C 589.322,1616.02 590.989,1624.68 592.5,1633.5C 591.175,1648.94 592.675,1664.27 597,1679.5C 605.249,1697.07 619.083,1706.9 638.5,1709C 646.966,1709.95 655.299,1709.28 663.5,1707C 683.919,1697.93 703.919,1687.93 723.5,1677C 766.91,1650.89 808.91,1622.89 849.5,1593C 851.628,1592.34 853.628,1591.51 855.5,1590.5 Z"/></g>
<g><path style="opacity:1" fill="#a3231c" d="M 847.5,1582.5 C 850.5,1584.83 853.167,1587.5 855.5,1590.5C 853.628,1591.51 851.628,1592.34 849.5,1593C 808.91,1622.89 766.91,1650.89 723.5,1677C 703.919,1687.93 683.919,1697.93 663.5,1707C 655.299,1709.28 646.966,1709.95 638.5,1709C 619.083,1706.9 605.249,1697.07 597,1679.5C 592.675,1664.27 591.175,1648.94 592.5,1633.5C 594.822,1647.3 598.655,1660.63 604,1673.5C 608.086,1682.27 613.419,1690.27 620,1697.5C 622.559,1700.53 625.726,1702.7 629.5,1704C 636.869,1704.62 644.202,1704.28 651.5,1703C 674.974,1695.1 697.307,1684.76 718.5,1672C 743.97,1656.43 768.97,1640.1 793.5,1623C 806.674,1612.58 820.341,1602.92 834.5,1594C 838.824,1590.17 843.158,1586.34 847.5,1582.5 Z"/></g>
</svg>
